<svg width="32" height="32" viewBox="0 0 32 32" fill="none" xmlns="http://www.w3.org/2000/svg">
<path d="M9.14285 16.1964C9.14285 16.5312 9.26339 16.8259 9.51785 17.0803L20.1384 27.4598C20.3661 27.7009 20.6607 27.8215 21.0089 27.8215C21.7054 27.8215 22.241 27.2991 22.241 26.6026C22.241 26.2545 22.0937 25.9598 21.8794 25.7321L12.1295 16.1964L21.8794 6.66069C22.0937 6.43302 22.241 6.12499 22.241 5.79017C22.241 5.09373 21.7054 4.57141 21.0089 4.57141C20.6607 4.57141 20.3661 4.69195 20.1384 4.91963L9.51785 15.3124C9.26339 15.5536 9.14285 15.8616 9.14285 16.1964Z" fill="black"/>
</svg>
