<svg width="32" height="32" viewBox="0 0 28 28" fill="none" xmlns="http://www.w3.org/2000/svg">
<path fill-rule="evenodd" clip-rule="evenodd" d="M17.6 6.66665C17.6 5.78299 16.8837 5.06665 16 5.06665C15.1163 5.06665 14.4 5.78299 14.4 6.66665V14.4H6.66665C5.78301 14.4 5.06665 15.1163 5.06665 16C5.06665 16.8837 5.78301 17.6 6.66665 17.6H14.4V25.3334C14.4 26.217 15.1163 26.9334 16 26.9334C16.8837 26.9334 17.6 26.217 17.6 25.3334V17.6H25.3334C26.217 17.6 26.9334 16.8837 26.9334 16C26.9334 15.1163 26.217 14.4 25.3334 14.4H17.6V6.66665Z" fill="current"/>
</svg>
