<svg width="32" height="32" viewBox="0 0 28 28" fill="none" xmlns="http://www.w3.org/2000/svg">
<path d="M3.42857 12.9732C3.42857 18.866 8.22321 23.6607 14.1161 23.6607C16.4464 23.6607 18.5759 22.9107 20.3304 21.6518L26.9197 28.2545C27.2277 28.5625 27.6295 28.7098 28.0581 28.7098C28.9688 28.7098 29.5982 28.0267 29.5982 27.1295C29.5982 26.7009 29.4375 26.3124 29.1562 26.0312L22.6071 19.4419C23.9866 17.6473 24.8035 15.4107 24.8035 12.9732C24.8035 7.08035 20.0089 2.28571 14.1161 2.28571C8.22321 2.28571 3.42857 7.08035 3.42857 12.9732ZM5.71876 12.9732C5.71876 8.33928 9.48215 4.57589 14.1161 4.57589C18.7499 4.57589 22.5134 8.33928 22.5134 12.9732C22.5134 17.6071 18.7499 21.3705 14.1161 21.3705C9.48215 21.3705 5.71876 17.6071 5.71876 12.9732Z" fill="current"/>
</svg>
